G04 #@! TF.FileFunction,Copper,L1,Top,Signal*
%FSLAX46Y46*%
G04 Gerber Fmt 4.6, Leading zero omitted, Abs format (unit mm)*
G04 Created by KiCad (PCBNEW 4.0.1-stable) date 4/19/2016 1:19:52 PM*
%MOMM*%
G01*
G04 APERTURE LIST*
%ADD10C,0.100000*%
%ADD11C,4.064000*%
%ADD12R,1.524000X1.524000*%
%ADD13C,1.524000*%
%ADD14R,1.143000X0.508000*%
%ADD15R,1.600000X1.000000*%
%ADD16C,0.200000*%
%ADD17C,0.400000*%
%ADD18C,0.254000*%
G04 APERTURE END LIST*
D10*
D11*
X19050000Y-20955000D03*
D12*
X26797000Y-26479500D03*
D13*
X26797000Y-29019500D03*
X29337000Y-26479500D03*
X29337000Y-29019500D03*
X31877000Y-26479500D03*
X31877000Y-29019500D03*
X34417000Y-26479500D03*
X34417000Y-29019500D03*
X36957000Y-26479500D03*
X36957000Y-29019500D03*
D14*
X28829000Y-22860000D03*
X28829000Y-21590000D03*
X28829000Y-20320000D03*
X28829000Y-19050000D03*
X35179000Y-19050000D03*
X35179000Y-20320000D03*
X35179000Y-21590000D03*
X35179000Y-22860000D03*
D15*
X37592000Y-22645500D03*
X37592000Y-19645500D03*
X25654000Y-22582000D03*
X25654000Y-19582000D03*
D11*
X44450000Y-20955000D03*
D16*
X35179000Y-22860000D02*
X37377500Y-22860000D01*
X37377500Y-22860000D02*
X37592000Y-22645500D01*
X35179000Y-21590000D02*
X34417000Y-21590000D01*
X30451498Y-25365002D02*
X29337000Y-26479500D01*
X31086498Y-25365002D02*
X30451498Y-25365002D01*
X33464500Y-22987000D02*
X31086498Y-25365002D01*
X33464500Y-22542500D02*
X33464500Y-22987000D01*
X34417000Y-21590000D02*
X33464500Y-22542500D01*
X25654000Y-19582000D02*
X25654000Y-19113500D01*
X35179000Y-21590000D02*
X35647500Y-21590000D01*
X35647500Y-21590000D02*
X37592000Y-19645500D01*
X26797000Y-29019500D02*
X26352500Y-29019500D01*
X26352500Y-29019500D02*
X25209500Y-27876500D01*
X25209500Y-27876500D02*
X25209500Y-23026500D01*
X25209500Y-23026500D02*
X25654000Y-22582000D01*
D17*
X28829000Y-22860000D02*
X25932000Y-22860000D01*
X25932000Y-22860000D02*
X25654000Y-22582000D01*
D16*
X26797000Y-26479500D02*
X26797000Y-26098500D01*
X26797000Y-26098500D02*
X28956000Y-23939500D01*
X28956000Y-23939500D02*
X30543500Y-23939500D01*
X30543500Y-23939500D02*
X32004000Y-22479000D01*
X32004000Y-22479000D02*
X32004000Y-20828000D01*
X32004000Y-20828000D02*
X33782000Y-19050000D01*
X33782000Y-19050000D02*
X35179000Y-19050000D01*
X35179000Y-19050000D02*
X35687000Y-19050000D01*
X35179000Y-20320000D02*
X33972500Y-20320000D01*
X28067000Y-27749500D02*
X29337000Y-29019500D01*
X28067000Y-25677030D02*
X28067000Y-27749500D01*
X28979030Y-24765000D02*
X28067000Y-25677030D01*
X30797500Y-24765000D02*
X28979030Y-24765000D01*
X32766000Y-22796500D02*
X30797500Y-24765000D01*
X32766000Y-21526500D02*
X32766000Y-22796500D01*
X33972500Y-20320000D02*
X32766000Y-21526500D01*
X34417000Y-29083000D02*
X34417000Y-28575000D01*
X36957000Y-26543000D02*
X36957000Y-26693030D01*
D18*
G36*
X40438000Y-30786000D02*
X23062000Y-30786000D01*
X23062000Y-21447000D01*
X24206560Y-21447000D01*
X24206560Y-22447000D01*
X24250838Y-22682317D01*
X24389910Y-22898441D01*
X24474500Y-22956239D01*
X24474500Y-27241500D01*
X24530449Y-27522772D01*
X24689777Y-27761223D01*
X25399924Y-28471370D01*
X25399758Y-28661161D01*
X25611990Y-29174803D01*
X26004630Y-29568129D01*
X26517900Y-29781257D01*
X27073661Y-29781742D01*
X27587303Y-29569510D01*
X27980629Y-29176870D01*
X28066949Y-28968988D01*
X28151990Y-29174803D01*
X28544630Y-29568129D01*
X29057900Y-29781257D01*
X29613661Y-29781742D01*
X30127303Y-29569510D01*
X30520629Y-29176870D01*
X30606949Y-28968988D01*
X30691990Y-29174803D01*
X31084630Y-29568129D01*
X31597900Y-29781257D01*
X32153661Y-29781742D01*
X32667303Y-29569510D01*
X33060629Y-29176870D01*
X33146949Y-28968988D01*
X33231990Y-29174803D01*
X33624630Y-29568129D01*
X34137900Y-29781257D01*
X34693661Y-29781742D01*
X35207303Y-29569510D01*
X35600629Y-29176870D01*
X35686949Y-28968988D01*
X35771990Y-29174803D01*
X36164630Y-29568129D01*
X36677900Y-29781257D01*
X37233661Y-29781742D01*
X37747303Y-29569510D01*
X38140629Y-29176870D01*
X38353757Y-28663600D01*
X38354242Y-28107839D01*
X38142010Y-27594197D01*
X37749370Y-27200871D01*
X37541488Y-27114551D01*
X37747303Y-27029510D01*
X38140629Y-26636870D01*
X38353757Y-26123600D01*
X38354242Y-25567839D01*
X38142010Y-25054197D01*
X37749370Y-24660871D01*
X37236100Y-24447743D01*
X36680339Y-24447258D01*
X36166697Y-24659490D01*
X35773371Y-25052130D01*
X35687051Y-25260012D01*
X35602010Y-25054197D01*
X35209370Y-24660871D01*
X34696100Y-24447743D01*
X34140339Y-24447258D01*
X33626697Y-24659490D01*
X33233371Y-25052130D01*
X33147051Y-25260012D01*
X33062010Y-25054197D01*
X32669370Y-24660871D01*
X32156100Y-24447743D01*
X31600339Y-24447258D01*
X31462899Y-24504047D01*
X33285723Y-22681224D01*
X33445051Y-22442773D01*
X33475087Y-22291772D01*
X33501000Y-22161500D01*
X33501000Y-21971000D01*
X33960060Y-21971000D01*
X33960060Y-22479000D01*
X34004338Y-22714317D01*
X34143410Y-22930441D01*
X34355610Y-23075431D01*
X34607500Y-23126440D01*
X35750500Y-23126440D01*
X35985817Y-23082162D01*
X36175662Y-22960000D01*
X36326661Y-22960000D01*
X36327910Y-22961941D01*
X36540110Y-23106931D01*
X36792000Y-23157940D01*
X38392000Y-23157940D01*
X38627317Y-23113662D01*
X38843441Y-22974590D01*
X38988431Y-22762390D01*
X39039440Y-22510500D01*
X39039440Y-21510500D01*
X38995162Y-21275183D01*
X38856090Y-21059059D01*
X38643890Y-20914069D01*
X38392000Y-20863060D01*
X36792000Y-20863060D01*
X36556683Y-20907338D01*
X36340559Y-21046410D01*
X36279915Y-21135165D01*
X36226750Y-21082000D01*
X35464750Y-21082000D01*
X35464750Y-21209000D01*
X34893250Y-21209000D01*
X34893250Y-21082000D01*
X34131250Y-21082000D01*
X33972500Y-21240750D01*
X33972500Y-21335309D01*
X34069173Y-21568698D01*
X34095709Y-21595235D01*
X34011069Y-21719110D01*
X33960060Y-21971000D01*
X33501000Y-21971000D01*
X33501000Y-21195946D01*
X34000098Y-20696848D01*
X34131250Y-20828000D01*
X34893250Y-20828000D01*
X34893250Y-20701000D01*
X35464750Y-20701000D01*
X35464750Y-20828000D01*
X36226750Y-20828000D01*
X36385500Y-20669250D01*
X36385500Y-20574691D01*
X36288827Y-20341302D01*
X36262291Y-20314765D01*
X36346931Y-20190890D01*
X36385231Y-20001757D01*
X36432301Y-20048827D01*
X36665690Y-20145500D01*
X37060250Y-20145500D01*
X37219000Y-19986750D01*
X37219000Y-19260500D01*
X37965000Y-19260500D01*
X37965000Y-19986750D01*
X38123750Y-20145500D01*
X38518310Y-20145500D01*
X38751699Y-20048827D01*
X38930327Y-19870198D01*
X39027000Y-19636809D01*
X39027000Y-19419250D01*
X38868250Y-19260500D01*
X37965000Y-19260500D01*
X37219000Y-19260500D01*
X37199000Y-19260500D01*
X37199000Y-18760500D01*
X37219000Y-18760500D01*
X37219000Y-18034250D01*
X37965000Y-18034250D01*
X37965000Y-18760500D01*
X38868250Y-18760500D01*
X39027000Y-18601750D01*
X39027000Y-18384191D01*
X38930327Y-18150802D01*
X38751699Y-17972173D01*
X38518310Y-17875500D01*
X38123750Y-17875500D01*
X37965000Y-18034250D01*
X37219000Y-18034250D01*
X37060250Y-17875500D01*
X36665690Y-17875500D01*
X36432301Y-17972173D01*
X36373478Y-18030996D01*
X36353662Y-17925683D01*
X36214590Y-17709559D01*
X36002390Y-17564569D01*
X35750500Y-17513560D01*
X34607500Y-17513560D01*
X34372183Y-17557838D01*
X34182338Y-17680000D01*
X33782000Y-17680000D01*
X33500728Y-17735949D01*
X33262277Y-17895276D01*
X31484277Y-19673277D01*
X31324949Y-19911728D01*
X31269000Y-20193000D01*
X31269000Y-21539553D01*
X30239054Y-22569500D01*
X30029613Y-22569500D01*
X30047940Y-22479000D01*
X30047940Y-21971000D01*
X30003662Y-21735683D01*
X29909334Y-21589093D01*
X29996931Y-21460890D01*
X30047940Y-21209000D01*
X30047940Y-20701000D01*
X30003662Y-20465683D01*
X29909334Y-20319093D01*
X29996931Y-20190890D01*
X30047940Y-19939000D01*
X30047940Y-19431000D01*
X30003662Y-19195683D01*
X29909334Y-19049093D01*
X29996931Y-18920890D01*
X30047940Y-18669000D01*
X30047940Y-18161000D01*
X30003662Y-17925683D01*
X29864590Y-17709559D01*
X29652390Y-17564569D01*
X29400500Y-17513560D01*
X28257500Y-17513560D01*
X28022183Y-17557838D01*
X27806059Y-17696910D01*
X27661069Y-17909110D01*
X27610060Y-18161000D01*
X27610060Y-18669000D01*
X27654338Y-18904317D01*
X27748666Y-19050907D01*
X27661069Y-19179110D01*
X27610060Y-19431000D01*
X27610060Y-19939000D01*
X27654338Y-20174317D01*
X27748666Y-20320907D01*
X27661069Y-20449110D01*
X27610060Y-20701000D01*
X27610060Y-21209000D01*
X27644118Y-21390000D01*
X27090715Y-21390000D01*
X27057162Y-21211683D01*
X26918090Y-20995559D01*
X26705890Y-20850569D01*
X26454000Y-20799560D01*
X24854000Y-20799560D01*
X24618683Y-20843838D01*
X24402559Y-20982910D01*
X24257569Y-21195110D01*
X24206560Y-21447000D01*
X23062000Y-21447000D01*
X23062000Y-19355750D01*
X24219000Y-19355750D01*
X24219000Y-19573309D01*
X24315673Y-19806698D01*
X24494301Y-19985327D01*
X24727690Y-20082000D01*
X25122250Y-20082000D01*
X25281000Y-19923250D01*
X25281000Y-19197000D01*
X26027000Y-19197000D01*
X26027000Y-19923250D01*
X26185750Y-20082000D01*
X26580310Y-20082000D01*
X26813699Y-19985327D01*
X26992327Y-19806698D01*
X27089000Y-19573309D01*
X27089000Y-19355750D01*
X26930250Y-19197000D01*
X26027000Y-19197000D01*
X25281000Y-19197000D01*
X24377750Y-19197000D01*
X24219000Y-19355750D01*
X23062000Y-19355750D01*
X23062000Y-18320691D01*
X24219000Y-18320691D01*
X24219000Y-18538250D01*
X24377750Y-18697000D01*
X25281000Y-18697000D01*
X25281000Y-17970750D01*
X26027000Y-17970750D01*
X26027000Y-18697000D01*
X26930250Y-18697000D01*
X27089000Y-18538250D01*
X27089000Y-18320691D01*
X26992327Y-18087302D01*
X26813699Y-17908673D01*
X26580310Y-17812000D01*
X26185750Y-17812000D01*
X26027000Y-17970750D01*
X25281000Y-17970750D01*
X25122250Y-17812000D01*
X24727690Y-17812000D01*
X24494301Y-17908673D01*
X24315673Y-18087302D01*
X24219000Y-18320691D01*
X23062000Y-18320691D01*
X23062000Y-15950000D01*
X40438000Y-15950000D01*
X40438000Y-30786000D01*
X40438000Y-30786000D01*
G37*
X40438000Y-30786000D02*
X23062000Y-30786000D01*
X23062000Y-21447000D01*
X24206560Y-21447000D01*
X24206560Y-22447000D01*
X24250838Y-22682317D01*
X24389910Y-22898441D01*
X24474500Y-22956239D01*
X24474500Y-27241500D01*
X24530449Y-27522772D01*
X24689777Y-27761223D01*
X25399924Y-28471370D01*
X25399758Y-28661161D01*
X25611990Y-29174803D01*
X26004630Y-29568129D01*
X26517900Y-29781257D01*
X27073661Y-29781742D01*
X27587303Y-29569510D01*
X27980629Y-29176870D01*
X28066949Y-28968988D01*
X28151990Y-29174803D01*
X28544630Y-29568129D01*
X29057900Y-29781257D01*
X29613661Y-29781742D01*
X30127303Y-29569510D01*
X30520629Y-29176870D01*
X30606949Y-28968988D01*
X30691990Y-29174803D01*
X31084630Y-29568129D01*
X31597900Y-29781257D01*
X32153661Y-29781742D01*
X32667303Y-29569510D01*
X33060629Y-29176870D01*
X33146949Y-28968988D01*
X33231990Y-29174803D01*
X33624630Y-29568129D01*
X34137900Y-29781257D01*
X34693661Y-29781742D01*
X35207303Y-29569510D01*
X35600629Y-29176870D01*
X35686949Y-28968988D01*
X35771990Y-29174803D01*
X36164630Y-29568129D01*
X36677900Y-29781257D01*
X37233661Y-29781742D01*
X37747303Y-29569510D01*
X38140629Y-29176870D01*
X38353757Y-28663600D01*
X38354242Y-28107839D01*
X38142010Y-27594197D01*
X37749370Y-27200871D01*
X37541488Y-27114551D01*
X37747303Y-27029510D01*
X38140629Y-26636870D01*
X38353757Y-26123600D01*
X38354242Y-25567839D01*
X38142010Y-25054197D01*
X37749370Y-24660871D01*
X37236100Y-24447743D01*
X36680339Y-24447258D01*
X36166697Y-24659490D01*
X35773371Y-25052130D01*
X35687051Y-25260012D01*
X35602010Y-25054197D01*
X35209370Y-24660871D01*
X34696100Y-24447743D01*
X34140339Y-24447258D01*
X33626697Y-24659490D01*
X33233371Y-25052130D01*
X33147051Y-25260012D01*
X33062010Y-25054197D01*
X32669370Y-24660871D01*
X32156100Y-24447743D01*
X31600339Y-24447258D01*
X31462899Y-24504047D01*
X33285723Y-22681224D01*
X33445051Y-22442773D01*
X33475087Y-22291772D01*
X33501000Y-22161500D01*
X33501000Y-21971000D01*
X33960060Y-21971000D01*
X33960060Y-22479000D01*
X34004338Y-22714317D01*
X34143410Y-22930441D01*
X34355610Y-23075431D01*
X34607500Y-23126440D01*
X35750500Y-23126440D01*
X35985817Y-23082162D01*
X36175662Y-22960000D01*
X36326661Y-22960000D01*
X36327910Y-22961941D01*
X36540110Y-23106931D01*
X36792000Y-23157940D01*
X38392000Y-23157940D01*
X38627317Y-23113662D01*
X38843441Y-22974590D01*
X38988431Y-22762390D01*
X39039440Y-22510500D01*
X39039440Y-21510500D01*
X38995162Y-21275183D01*
X38856090Y-21059059D01*
X38643890Y-20914069D01*
X38392000Y-20863060D01*
X36792000Y-20863060D01*
X36556683Y-20907338D01*
X36340559Y-21046410D01*
X36279915Y-21135165D01*
X36226750Y-21082000D01*
X35464750Y-21082000D01*
X35464750Y-21209000D01*
X34893250Y-21209000D01*
X34893250Y-21082000D01*
X34131250Y-21082000D01*
X33972500Y-21240750D01*
X33972500Y-21335309D01*
X34069173Y-21568698D01*
X34095709Y-21595235D01*
X34011069Y-21719110D01*
X33960060Y-21971000D01*
X33501000Y-21971000D01*
X33501000Y-21195946D01*
X34000098Y-20696848D01*
X34131250Y-20828000D01*
X34893250Y-20828000D01*
X34893250Y-20701000D01*
X35464750Y-20701000D01*
X35464750Y-20828000D01*
X36226750Y-20828000D01*
X36385500Y-20669250D01*
X36385500Y-20574691D01*
X36288827Y-20341302D01*
X36262291Y-20314765D01*
X36346931Y-20190890D01*
X36385231Y-20001757D01*
X36432301Y-20048827D01*
X36665690Y-20145500D01*
X37060250Y-20145500D01*
X37219000Y-19986750D01*
X37219000Y-19260500D01*
X37965000Y-19260500D01*
X37965000Y-19986750D01*
X38123750Y-20145500D01*
X38518310Y-20145500D01*
X38751699Y-20048827D01*
X38930327Y-19870198D01*
X39027000Y-19636809D01*
X39027000Y-19419250D01*
X38868250Y-19260500D01*
X37965000Y-19260500D01*
X37219000Y-19260500D01*
X37199000Y-19260500D01*
X37199000Y-18760500D01*
X37219000Y-18760500D01*
X37219000Y-18034250D01*
X37965000Y-18034250D01*
X37965000Y-18760500D01*
X38868250Y-18760500D01*
X39027000Y-18601750D01*
X39027000Y-18384191D01*
X38930327Y-18150802D01*
X38751699Y-17972173D01*
X38518310Y-17875500D01*
X38123750Y-17875500D01*
X37965000Y-18034250D01*
X37219000Y-18034250D01*
X37060250Y-17875500D01*
X36665690Y-17875500D01*
X36432301Y-17972173D01*
X36373478Y-18030996D01*
X36353662Y-17925683D01*
X36214590Y-17709559D01*
X36002390Y-17564569D01*
X35750500Y-17513560D01*
X34607500Y-17513560D01*
X34372183Y-17557838D01*
X34182338Y-17680000D01*
X33782000Y-17680000D01*
X33500728Y-17735949D01*
X33262277Y-17895276D01*
X31484277Y-19673277D01*
X31324949Y-19911728D01*
X31269000Y-20193000D01*
X31269000Y-21539553D01*
X30239054Y-22569500D01*
X30029613Y-22569500D01*
X30047940Y-22479000D01*
X30047940Y-21971000D01*
X30003662Y-21735683D01*
X29909334Y-21589093D01*
X29996931Y-21460890D01*
X30047940Y-21209000D01*
X30047940Y-20701000D01*
X30003662Y-20465683D01*
X29909334Y-20319093D01*
X29996931Y-20190890D01*
X30047940Y-19939000D01*
X30047940Y-19431000D01*
X30003662Y-19195683D01*
X29909334Y-19049093D01*
X29996931Y-18920890D01*
X30047940Y-18669000D01*
X30047940Y-18161000D01*
X30003662Y-17925683D01*
X29864590Y-17709559D01*
X29652390Y-17564569D01*
X29400500Y-17513560D01*
X28257500Y-17513560D01*
X28022183Y-17557838D01*
X27806059Y-17696910D01*
X27661069Y-17909110D01*
X27610060Y-18161000D01*
X27610060Y-18669000D01*
X27654338Y-18904317D01*
X27748666Y-19050907D01*
X27661069Y-19179110D01*
X27610060Y-19431000D01*
X27610060Y-19939000D01*
X27654338Y-20174317D01*
X27748666Y-20320907D01*
X27661069Y-20449110D01*
X27610060Y-20701000D01*
X27610060Y-21209000D01*
X27644118Y-21390000D01*
X27090715Y-21390000D01*
X27057162Y-21211683D01*
X26918090Y-20995559D01*
X26705890Y-20850569D01*
X26454000Y-20799560D01*
X24854000Y-20799560D01*
X24618683Y-20843838D01*
X24402559Y-20982910D01*
X24257569Y-21195110D01*
X24206560Y-21447000D01*
X23062000Y-21447000D01*
X23062000Y-19355750D01*
X24219000Y-19355750D01*
X24219000Y-19573309D01*
X24315673Y-19806698D01*
X24494301Y-19985327D01*
X24727690Y-20082000D01*
X25122250Y-20082000D01*
X25281000Y-19923250D01*
X25281000Y-19197000D01*
X26027000Y-19197000D01*
X26027000Y-19923250D01*
X26185750Y-20082000D01*
X26580310Y-20082000D01*
X26813699Y-19985327D01*
X26992327Y-19806698D01*
X27089000Y-19573309D01*
X27089000Y-19355750D01*
X26930250Y-19197000D01*
X26027000Y-19197000D01*
X25281000Y-19197000D01*
X24377750Y-19197000D01*
X24219000Y-19355750D01*
X23062000Y-19355750D01*
X23062000Y-18320691D01*
X24219000Y-18320691D01*
X24219000Y-18538250D01*
X24377750Y-18697000D01*
X25281000Y-18697000D01*
X25281000Y-17970750D01*
X26027000Y-17970750D01*
X26027000Y-18697000D01*
X26930250Y-18697000D01*
X27089000Y-18538250D01*
X27089000Y-18320691D01*
X26992327Y-18087302D01*
X26813699Y-17908673D01*
X26580310Y-17812000D01*
X26185750Y-17812000D01*
X26027000Y-17970750D01*
X25281000Y-17970750D01*
X25122250Y-17812000D01*
X24727690Y-17812000D01*
X24494301Y-17908673D01*
X24315673Y-18087302D01*
X24219000Y-18320691D01*
X23062000Y-18320691D01*
X23062000Y-15950000D01*
X40438000Y-15950000D01*
X40438000Y-30786000D01*
G36*
X29878644Y-25830358D02*
X29864502Y-25844500D01*
X30455930Y-26435928D01*
X30587944Y-26382993D01*
X30691990Y-26634803D01*
X31084630Y-27028129D01*
X31292512Y-27114449D01*
X31086697Y-27199490D01*
X30693371Y-27592130D01*
X30607051Y-27800012D01*
X30522010Y-27594197D01*
X30129370Y-27200871D01*
X29875490Y-27095451D01*
X29928428Y-26963430D01*
X29337000Y-26372002D01*
X29322858Y-26386144D01*
X28802000Y-25865286D01*
X28802000Y-25851998D01*
X28809498Y-25844500D01*
X28802000Y-25837002D01*
X28802000Y-25823714D01*
X29322858Y-25302856D01*
X29337000Y-25316998D01*
X29351142Y-25302856D01*
X29878644Y-25830358D01*
X29878644Y-25830358D01*
G37*
X29878644Y-25830358D02*
X29864502Y-25844500D01*
X30455930Y-26435928D01*
X30587944Y-26382993D01*
X30691990Y-26634803D01*
X31084630Y-27028129D01*
X31292512Y-27114449D01*
X31086697Y-27199490D01*
X30693371Y-27592130D01*
X30607051Y-27800012D01*
X30522010Y-27594197D01*
X30129370Y-27200871D01*
X29875490Y-27095451D01*
X29928428Y-26963430D01*
X29337000Y-26372002D01*
X29322858Y-26386144D01*
X28802000Y-25865286D01*
X28802000Y-25851998D01*
X28809498Y-25844500D01*
X28802000Y-25837002D01*
X28802000Y-25823714D01*
X29322858Y-25302856D01*
X29337000Y-25316998D01*
X29351142Y-25302856D01*
X29878644Y-25830358D01*
M02*
