G04 #@! TF.FileFunction,Legend,Top*
%FSLAX46Y46*%
G04 Gerber Fmt 4.6, Leading zero omitted, Abs format (unit mm)*
G04 Created by KiCad (PCBNEW 4.0.1-stable) date 4/19/2016 1:19:52 PM*
%MOMM*%
G01*
G04 APERTURE LIST*
%ADD10C,0.100000*%
%ADD11C,0.150000*%
G04 APERTURE END LIST*
D10*
D11*
X21336000Y-20955000D02*
G75*
G03X21336000Y-20955000I-2286000J0D01*
G01*
X29718000Y-23495000D02*
X29718000Y-18415000D01*
X29718000Y-18415000D02*
X34290000Y-18415000D01*
X34290000Y-18415000D02*
X34290000Y-23495000D01*
X34290000Y-23495000D02*
X29718000Y-23495000D01*
X31242000Y-23495000D02*
X31242000Y-22987000D01*
X31242000Y-22987000D02*
X32512000Y-22987000D01*
X32512000Y-22987000D02*
X32512000Y-23495000D01*
X36567000Y-20145500D02*
X36567000Y-22145500D01*
X38617000Y-22145500D02*
X38617000Y-20145500D01*
X24629000Y-20082000D02*
X24629000Y-22082000D01*
X26679000Y-22082000D02*
X26679000Y-20082000D01*
X46736000Y-20955000D02*
G75*
G03X46736000Y-20955000I-2286000J0D01*
G01*
X30186381Y-21716905D02*
X30995905Y-21716905D01*
X31091143Y-21669286D01*
X31138762Y-21621667D01*
X31186381Y-21526429D01*
X31186381Y-21335952D01*
X31138762Y-21240714D01*
X31091143Y-21193095D01*
X30995905Y-21145476D01*
X30186381Y-21145476D01*
X31186381Y-20145476D02*
X31186381Y-20716905D01*
X31186381Y-20431191D02*
X30186381Y-20431191D01*
X30329238Y-20526429D01*
X30424476Y-20621667D01*
X30472095Y-20716905D01*
X35649143Y-21312166D02*
X35696762Y-21359785D01*
X35744381Y-21502642D01*
X35744381Y-21597880D01*
X35696762Y-21740738D01*
X35601524Y-21835976D01*
X35506286Y-21883595D01*
X35315810Y-21931214D01*
X35172952Y-21931214D01*
X34982476Y-21883595D01*
X34887238Y-21835976D01*
X34792000Y-21740738D01*
X34744381Y-21597880D01*
X34744381Y-21502642D01*
X34792000Y-21359785D01*
X34839619Y-21312166D01*
X35744381Y-20359785D02*
X35744381Y-20931214D01*
X35744381Y-20645500D02*
X34744381Y-20645500D01*
X34887238Y-20740738D01*
X34982476Y-20835976D01*
X35030095Y-20931214D01*
X23711143Y-21248666D02*
X23758762Y-21296285D01*
X23806381Y-21439142D01*
X23806381Y-21534380D01*
X23758762Y-21677238D01*
X23663524Y-21772476D01*
X23568286Y-21820095D01*
X23377810Y-21867714D01*
X23234952Y-21867714D01*
X23044476Y-21820095D01*
X22949238Y-21772476D01*
X22854000Y-21677238D01*
X22806381Y-21534380D01*
X22806381Y-21439142D01*
X22854000Y-21296285D01*
X22901619Y-21248666D01*
X22901619Y-20867714D02*
X22854000Y-20820095D01*
X22806381Y-20724857D01*
X22806381Y-20486761D01*
X22854000Y-20391523D01*
X22901619Y-20343904D01*
X22996857Y-20296285D01*
X23092095Y-20296285D01*
X23234952Y-20343904D01*
X23806381Y-20915333D01*
X23806381Y-20296285D01*
M02*
