G04 #@! TF.FileFunction,Copper,L1,Top,Signal*
%FSLAX46Y46*%
G04 Gerber Fmt 4.6, Leading zero omitted, Abs format (unit mm)*
G04 Created by KiCad (PCBNEW 4.0.1-stable) date 4/15/2016 9:37:48 AM*
%MOMM*%
G01*
G04 APERTURE LIST*
%ADD10C,0.100000*%
%ADD11R,1.524000X1.524000*%
%ADD12C,1.524000*%
%ADD13R,1.143000X0.508000*%
%ADD14R,1.600000X1.000000*%
%ADD15C,0.200000*%
%ADD16C,0.400000*%
%ADD17C,0.254000*%
G04 APERTURE END LIST*
D10*
D11*
X36957000Y-28448000D03*
D12*
X36957000Y-25908000D03*
X34417000Y-28448000D03*
X34417000Y-25908000D03*
X31877000Y-28448000D03*
X31877000Y-25908000D03*
X29337000Y-28448000D03*
X29337000Y-25908000D03*
X26797000Y-28448000D03*
X26797000Y-25908000D03*
D13*
X28829000Y-22225000D03*
X28829000Y-20955000D03*
X28829000Y-19685000D03*
X28829000Y-18415000D03*
X35179000Y-18415000D03*
X35179000Y-19685000D03*
X35179000Y-20955000D03*
X35179000Y-22225000D03*
D14*
X37592000Y-22010500D03*
X37592000Y-19010500D03*
X25654000Y-21947000D03*
X25654000Y-18947000D03*
D15*
X35179000Y-22225000D02*
X37377500Y-22225000D01*
X37377500Y-22225000D02*
X37592000Y-22010500D01*
X25654000Y-18947000D02*
X25654000Y-18478500D01*
X25654000Y-18478500D02*
X26924000Y-17208500D01*
X26924000Y-17208500D02*
X29845000Y-17208500D01*
X29845000Y-17208500D02*
X30607000Y-17970500D01*
X30607000Y-17970500D02*
X30607000Y-26543000D01*
X30607000Y-26543000D02*
X31242000Y-27178000D01*
X31242000Y-27178000D02*
X34988500Y-27178000D01*
X35179000Y-20955000D02*
X35647500Y-20955000D01*
X35647500Y-20955000D02*
X37592000Y-19010500D01*
X34417000Y-28448000D02*
X34417000Y-27940000D01*
X34036000Y-28130500D02*
X34988500Y-27178000D01*
X34988500Y-27178000D02*
X35687000Y-26479500D01*
X35687000Y-26479500D02*
X35687000Y-24511000D01*
X35687000Y-24511000D02*
X34036000Y-22860000D01*
X34036000Y-22860000D02*
X34036000Y-21463000D01*
X34036000Y-21463000D02*
X34544000Y-20955000D01*
X34544000Y-20955000D02*
X35179000Y-20955000D01*
X36957000Y-25908000D02*
X36957000Y-26058030D01*
X36957000Y-26058030D02*
X35687000Y-27328030D01*
X35687000Y-27328030D02*
X35687000Y-29146500D01*
X35687000Y-29146500D02*
X35115500Y-29718000D01*
X35115500Y-29718000D02*
X26098500Y-29718000D01*
X26098500Y-29718000D02*
X25146000Y-28765500D01*
X25146000Y-28765500D02*
X25146000Y-22455000D01*
X25146000Y-22455000D02*
X25654000Y-21947000D01*
D16*
X28829000Y-22225000D02*
X25932000Y-22225000D01*
X25932000Y-22225000D02*
X25654000Y-21947000D01*
D15*
X35179000Y-18415000D02*
X35687000Y-18415000D01*
X35687000Y-18415000D02*
X36385500Y-17716500D01*
X36385500Y-17716500D02*
X38798500Y-17716500D01*
X38798500Y-17716500D02*
X39243000Y-18161000D01*
X39243000Y-18161000D02*
X39243000Y-26162000D01*
X39243000Y-26162000D02*
X36957000Y-28448000D01*
X35179000Y-19685000D02*
X34544000Y-19685000D01*
X33337500Y-24828500D02*
X34417000Y-25908000D01*
X33337500Y-20891500D02*
X33337500Y-24828500D01*
X34544000Y-19685000D02*
X33337500Y-20891500D01*
D17*
G36*
X40438000Y-30786000D02*
X23062000Y-30786000D01*
X23062000Y-21447000D01*
X24206560Y-21447000D01*
X24206560Y-22447000D01*
X24250838Y-22682317D01*
X24389910Y-22898441D01*
X24411000Y-22912851D01*
X24411000Y-28765500D01*
X24454264Y-28983000D01*
X24466949Y-29046772D01*
X24626277Y-29285223D01*
X25578776Y-30237723D01*
X25817227Y-30397051D01*
X25863894Y-30406333D01*
X26098500Y-30453000D01*
X35115500Y-30453000D01*
X35396772Y-30397051D01*
X35635223Y-30237723D01*
X36045734Y-29827213D01*
X36195000Y-29857440D01*
X37719000Y-29857440D01*
X37954317Y-29813162D01*
X38170441Y-29674090D01*
X38315431Y-29461890D01*
X38366440Y-29210000D01*
X38366440Y-28078006D01*
X39762723Y-26681724D01*
X39922051Y-26443272D01*
X39942732Y-26339302D01*
X39978000Y-26162000D01*
X39978000Y-18161000D01*
X39922051Y-17879728D01*
X39825981Y-17735949D01*
X39762724Y-17641277D01*
X39318223Y-17196777D01*
X39079772Y-17037449D01*
X38798500Y-16981500D01*
X36385500Y-16981500D01*
X36104228Y-17037449D01*
X35865776Y-17196777D01*
X35548993Y-17513560D01*
X34607500Y-17513560D01*
X34372183Y-17557838D01*
X34156059Y-17696910D01*
X34011069Y-17909110D01*
X33960060Y-18161000D01*
X33960060Y-18669000D01*
X34004338Y-18904317D01*
X34098666Y-19050907D01*
X34012419Y-19177134D01*
X32817777Y-20371777D01*
X32658449Y-20610228D01*
X32602500Y-20891500D01*
X32602500Y-24696604D01*
X32156100Y-24511243D01*
X31600339Y-24510758D01*
X31086697Y-24722990D01*
X30693371Y-25115630D01*
X30607051Y-25323512D01*
X30522010Y-25117697D01*
X30129370Y-24724371D01*
X29616100Y-24511243D01*
X29060339Y-24510758D01*
X28546697Y-24722990D01*
X28153371Y-25115630D01*
X28067051Y-25323512D01*
X27982010Y-25117697D01*
X27589370Y-24724371D01*
X27076100Y-24511243D01*
X26520339Y-24510758D01*
X26006697Y-24722990D01*
X25881000Y-24848468D01*
X25881000Y-23094440D01*
X26454000Y-23094440D01*
X26637033Y-23060000D01*
X27983026Y-23060000D01*
X28005610Y-23075431D01*
X28257500Y-23126440D01*
X29400500Y-23126440D01*
X29635817Y-23082162D01*
X29851941Y-22943090D01*
X29996931Y-22730890D01*
X30047940Y-22479000D01*
X30047940Y-21971000D01*
X30003662Y-21735683D01*
X29909334Y-21589093D01*
X29996931Y-21460890D01*
X30047940Y-21209000D01*
X30047940Y-20701000D01*
X30003662Y-20465683D01*
X29909334Y-20319093D01*
X29996931Y-20190890D01*
X30047940Y-19939000D01*
X30047940Y-19431000D01*
X30003662Y-19195683D01*
X29909334Y-19049093D01*
X29996931Y-18920890D01*
X30047940Y-18669000D01*
X30047940Y-18161000D01*
X30003662Y-17925683D01*
X29864590Y-17709559D01*
X29652390Y-17564569D01*
X29400500Y-17513560D01*
X28257500Y-17513560D01*
X28022183Y-17557838D01*
X27806059Y-17696910D01*
X27661069Y-17909110D01*
X27610060Y-18161000D01*
X27610060Y-18669000D01*
X27654338Y-18904317D01*
X27748666Y-19050907D01*
X27661069Y-19179110D01*
X27610060Y-19431000D01*
X27610060Y-19939000D01*
X27654338Y-20174317D01*
X27748666Y-20320907D01*
X27661069Y-20449110D01*
X27610060Y-20701000D01*
X27610060Y-21209000D01*
X27644118Y-21390000D01*
X27090715Y-21390000D01*
X27057162Y-21211683D01*
X26918090Y-20995559D01*
X26705890Y-20850569D01*
X26454000Y-20799560D01*
X24854000Y-20799560D01*
X24618683Y-20843838D01*
X24402559Y-20982910D01*
X24257569Y-21195110D01*
X24206560Y-21447000D01*
X23062000Y-21447000D01*
X23062000Y-19355750D01*
X24219000Y-19355750D01*
X24219000Y-19573309D01*
X24315673Y-19806698D01*
X24494301Y-19985327D01*
X24727690Y-20082000D01*
X25122250Y-20082000D01*
X25281000Y-19923250D01*
X25281000Y-19197000D01*
X26027000Y-19197000D01*
X26027000Y-19923250D01*
X26185750Y-20082000D01*
X26580310Y-20082000D01*
X26813699Y-19985327D01*
X26992327Y-19806698D01*
X27089000Y-19573309D01*
X27089000Y-19355750D01*
X26930250Y-19197000D01*
X26027000Y-19197000D01*
X25281000Y-19197000D01*
X24377750Y-19197000D01*
X24219000Y-19355750D01*
X23062000Y-19355750D01*
X23062000Y-18320691D01*
X24219000Y-18320691D01*
X24219000Y-18538250D01*
X24377750Y-18697000D01*
X25281000Y-18697000D01*
X25281000Y-17970750D01*
X26027000Y-17970750D01*
X26027000Y-18697000D01*
X26930250Y-18697000D01*
X27089000Y-18538250D01*
X27089000Y-18320691D01*
X26992327Y-18087302D01*
X26813699Y-17908673D01*
X26580310Y-17812000D01*
X26185750Y-17812000D01*
X26027000Y-17970750D01*
X25281000Y-17970750D01*
X25122250Y-17812000D01*
X24727690Y-17812000D01*
X24494301Y-17908673D01*
X24315673Y-18087302D01*
X24219000Y-18320691D01*
X23062000Y-18320691D01*
X23062000Y-15950000D01*
X40438000Y-15950000D01*
X40438000Y-30786000D01*
X40438000Y-30786000D01*
G37*
X40438000Y-30786000D02*
X23062000Y-30786000D01*
X23062000Y-21447000D01*
X24206560Y-21447000D01*
X24206560Y-22447000D01*
X24250838Y-22682317D01*
X24389910Y-22898441D01*
X24411000Y-22912851D01*
X24411000Y-28765500D01*
X24454264Y-28983000D01*
X24466949Y-29046772D01*
X24626277Y-29285223D01*
X25578776Y-30237723D01*
X25817227Y-30397051D01*
X25863894Y-30406333D01*
X26098500Y-30453000D01*
X35115500Y-30453000D01*
X35396772Y-30397051D01*
X35635223Y-30237723D01*
X36045734Y-29827213D01*
X36195000Y-29857440D01*
X37719000Y-29857440D01*
X37954317Y-29813162D01*
X38170441Y-29674090D01*
X38315431Y-29461890D01*
X38366440Y-29210000D01*
X38366440Y-28078006D01*
X39762723Y-26681724D01*
X39922051Y-26443272D01*
X39942732Y-26339302D01*
X39978000Y-26162000D01*
X39978000Y-18161000D01*
X39922051Y-17879728D01*
X39825981Y-17735949D01*
X39762724Y-17641277D01*
X39318223Y-17196777D01*
X39079772Y-17037449D01*
X38798500Y-16981500D01*
X36385500Y-16981500D01*
X36104228Y-17037449D01*
X35865776Y-17196777D01*
X35548993Y-17513560D01*
X34607500Y-17513560D01*
X34372183Y-17557838D01*
X34156059Y-17696910D01*
X34011069Y-17909110D01*
X33960060Y-18161000D01*
X33960060Y-18669000D01*
X34004338Y-18904317D01*
X34098666Y-19050907D01*
X34012419Y-19177134D01*
X32817777Y-20371777D01*
X32658449Y-20610228D01*
X32602500Y-20891500D01*
X32602500Y-24696604D01*
X32156100Y-24511243D01*
X31600339Y-24510758D01*
X31086697Y-24722990D01*
X30693371Y-25115630D01*
X30607051Y-25323512D01*
X30522010Y-25117697D01*
X30129370Y-24724371D01*
X29616100Y-24511243D01*
X29060339Y-24510758D01*
X28546697Y-24722990D01*
X28153371Y-25115630D01*
X28067051Y-25323512D01*
X27982010Y-25117697D01*
X27589370Y-24724371D01*
X27076100Y-24511243D01*
X26520339Y-24510758D01*
X26006697Y-24722990D01*
X25881000Y-24848468D01*
X25881000Y-23094440D01*
X26454000Y-23094440D01*
X26637033Y-23060000D01*
X27983026Y-23060000D01*
X28005610Y-23075431D01*
X28257500Y-23126440D01*
X29400500Y-23126440D01*
X29635817Y-23082162D01*
X29851941Y-22943090D01*
X29996931Y-22730890D01*
X30047940Y-22479000D01*
X30047940Y-21971000D01*
X30003662Y-21735683D01*
X29909334Y-21589093D01*
X29996931Y-21460890D01*
X30047940Y-21209000D01*
X30047940Y-20701000D01*
X30003662Y-20465683D01*
X29909334Y-20319093D01*
X29996931Y-20190890D01*
X30047940Y-19939000D01*
X30047940Y-19431000D01*
X30003662Y-19195683D01*
X29909334Y-19049093D01*
X29996931Y-18920890D01*
X30047940Y-18669000D01*
X30047940Y-18161000D01*
X30003662Y-17925683D01*
X29864590Y-17709559D01*
X29652390Y-17564569D01*
X29400500Y-17513560D01*
X28257500Y-17513560D01*
X28022183Y-17557838D01*
X27806059Y-17696910D01*
X27661069Y-17909110D01*
X27610060Y-18161000D01*
X27610060Y-18669000D01*
X27654338Y-18904317D01*
X27748666Y-19050907D01*
X27661069Y-19179110D01*
X27610060Y-19431000D01*
X27610060Y-19939000D01*
X27654338Y-20174317D01*
X27748666Y-20320907D01*
X27661069Y-20449110D01*
X27610060Y-20701000D01*
X27610060Y-21209000D01*
X27644118Y-21390000D01*
X27090715Y-21390000D01*
X27057162Y-21211683D01*
X26918090Y-20995559D01*
X26705890Y-20850569D01*
X26454000Y-20799560D01*
X24854000Y-20799560D01*
X24618683Y-20843838D01*
X24402559Y-20982910D01*
X24257569Y-21195110D01*
X24206560Y-21447000D01*
X23062000Y-21447000D01*
X23062000Y-19355750D01*
X24219000Y-19355750D01*
X24219000Y-19573309D01*
X24315673Y-19806698D01*
X24494301Y-19985327D01*
X24727690Y-20082000D01*
X25122250Y-20082000D01*
X25281000Y-19923250D01*
X25281000Y-19197000D01*
X26027000Y-19197000D01*
X26027000Y-19923250D01*
X26185750Y-20082000D01*
X26580310Y-20082000D01*
X26813699Y-19985327D01*
X26992327Y-19806698D01*
X27089000Y-19573309D01*
X27089000Y-19355750D01*
X26930250Y-19197000D01*
X26027000Y-19197000D01*
X25281000Y-19197000D01*
X24377750Y-19197000D01*
X24219000Y-19355750D01*
X23062000Y-19355750D01*
X23062000Y-18320691D01*
X24219000Y-18320691D01*
X24219000Y-18538250D01*
X24377750Y-18697000D01*
X25281000Y-18697000D01*
X25281000Y-17970750D01*
X26027000Y-17970750D01*
X26027000Y-18697000D01*
X26930250Y-18697000D01*
X27089000Y-18538250D01*
X27089000Y-18320691D01*
X26992327Y-18087302D01*
X26813699Y-17908673D01*
X26580310Y-17812000D01*
X26185750Y-17812000D01*
X26027000Y-17970750D01*
X25281000Y-17970750D01*
X25122250Y-17812000D01*
X24727690Y-17812000D01*
X24494301Y-17908673D01*
X24315673Y-18087302D01*
X24219000Y-18320691D01*
X23062000Y-18320691D01*
X23062000Y-15950000D01*
X40438000Y-15950000D01*
X40438000Y-30786000D01*
G36*
X33231990Y-26698303D02*
X33624630Y-27091629D01*
X33878510Y-27197049D01*
X33825572Y-27329070D01*
X34417000Y-27920498D01*
X34431142Y-27906356D01*
X34952000Y-28427214D01*
X34952000Y-28440502D01*
X34944502Y-28448000D01*
X34952000Y-28455498D01*
X34952000Y-28468786D01*
X34437786Y-28983000D01*
X34424498Y-28983000D01*
X34417000Y-28975502D01*
X34409502Y-28983000D01*
X34396214Y-28983000D01*
X33875356Y-28462142D01*
X33889498Y-28448000D01*
X33298070Y-27856572D01*
X33166056Y-27909507D01*
X33062010Y-27657697D01*
X32669370Y-27264371D01*
X32461488Y-27178051D01*
X32667303Y-27093010D01*
X33060629Y-26700370D01*
X33146949Y-26492488D01*
X33231990Y-26698303D01*
X33231990Y-26698303D01*
G37*
X33231990Y-26698303D02*
X33624630Y-27091629D01*
X33878510Y-27197049D01*
X33825572Y-27329070D01*
X34417000Y-27920498D01*
X34431142Y-27906356D01*
X34952000Y-28427214D01*
X34952000Y-28440502D01*
X34944502Y-28448000D01*
X34952000Y-28455498D01*
X34952000Y-28468786D01*
X34437786Y-28983000D01*
X34424498Y-28983000D01*
X34417000Y-28975502D01*
X34409502Y-28983000D01*
X34396214Y-28983000D01*
X33875356Y-28462142D01*
X33889498Y-28448000D01*
X33298070Y-27856572D01*
X33166056Y-27909507D01*
X33062010Y-27657697D01*
X32669370Y-27264371D01*
X32461488Y-27178051D01*
X32667303Y-27093010D01*
X33060629Y-26700370D01*
X33146949Y-26492488D01*
X33231990Y-26698303D01*
G36*
X30691990Y-26698303D02*
X31084630Y-27091629D01*
X31292512Y-27177949D01*
X31086697Y-27262990D01*
X30693371Y-27655630D01*
X30607051Y-27863512D01*
X30522010Y-27657697D01*
X30129370Y-27264371D01*
X29921488Y-27178051D01*
X30127303Y-27093010D01*
X30520629Y-26700370D01*
X30606949Y-26492488D01*
X30691990Y-26698303D01*
X30691990Y-26698303D01*
G37*
X30691990Y-26698303D02*
X31084630Y-27091629D01*
X31292512Y-27177949D01*
X31086697Y-27262990D01*
X30693371Y-27655630D01*
X30607051Y-27863512D01*
X30522010Y-27657697D01*
X30129370Y-27264371D01*
X29921488Y-27178051D01*
X30127303Y-27093010D01*
X30520629Y-26700370D01*
X30606949Y-26492488D01*
X30691990Y-26698303D01*
G36*
X34143410Y-22930441D02*
X34355610Y-23075431D01*
X34607500Y-23126440D01*
X35750500Y-23126440D01*
X35985817Y-23082162D01*
X36175662Y-22960000D01*
X36326661Y-22960000D01*
X36327910Y-22961941D01*
X36540110Y-23106931D01*
X36792000Y-23157940D01*
X38392000Y-23157940D01*
X38508000Y-23136113D01*
X38508000Y-25857553D01*
X38353910Y-26011643D01*
X38354242Y-25631339D01*
X38142010Y-25117697D01*
X37749370Y-24724371D01*
X37236100Y-24511243D01*
X36680339Y-24510758D01*
X36166697Y-24722990D01*
X35773371Y-25115630D01*
X35687051Y-25323512D01*
X35602010Y-25117697D01*
X35209370Y-24724371D01*
X34696100Y-24511243D01*
X34140339Y-24510758D01*
X34082927Y-24534480D01*
X34072500Y-24524054D01*
X34072500Y-22820244D01*
X34143410Y-22930441D01*
X34143410Y-22930441D01*
G37*
X34143410Y-22930441D02*
X34355610Y-23075431D01*
X34607500Y-23126440D01*
X35750500Y-23126440D01*
X35985817Y-23082162D01*
X36175662Y-22960000D01*
X36326661Y-22960000D01*
X36327910Y-22961941D01*
X36540110Y-23106931D01*
X36792000Y-23157940D01*
X38392000Y-23157940D01*
X38508000Y-23136113D01*
X38508000Y-25857553D01*
X38353910Y-26011643D01*
X38354242Y-25631339D01*
X38142010Y-25117697D01*
X37749370Y-24724371D01*
X37236100Y-24511243D01*
X36680339Y-24510758D01*
X36166697Y-24722990D01*
X35773371Y-25115630D01*
X35687051Y-25323512D01*
X35602010Y-25117697D01*
X35209370Y-24724371D01*
X34696100Y-24511243D01*
X34140339Y-24510758D01*
X34082927Y-24534480D01*
X34072500Y-24524054D01*
X34072500Y-22820244D01*
X34143410Y-22930441D01*
G36*
X37965000Y-18760500D02*
X37985000Y-18760500D01*
X37985000Y-19260500D01*
X37965000Y-19260500D01*
X37965000Y-19986750D01*
X38123750Y-20145500D01*
X38508000Y-20145500D01*
X38508000Y-20886551D01*
X38392000Y-20863060D01*
X36792000Y-20863060D01*
X36556683Y-20907338D01*
X36340559Y-21046410D01*
X36279915Y-21135165D01*
X36226750Y-21082000D01*
X35464750Y-21082000D01*
X35464750Y-21209000D01*
X34893250Y-21209000D01*
X34893250Y-21082000D01*
X34786000Y-21082000D01*
X34786000Y-20828000D01*
X34893250Y-20828000D01*
X34893250Y-20701000D01*
X35464750Y-20701000D01*
X35464750Y-20828000D01*
X36226750Y-20828000D01*
X36385500Y-20669250D01*
X36385500Y-20574691D01*
X36288827Y-20341302D01*
X36262291Y-20314765D01*
X36346931Y-20190890D01*
X36385231Y-20001757D01*
X36432301Y-20048827D01*
X36665690Y-20145500D01*
X37060250Y-20145500D01*
X37219000Y-19986750D01*
X37219000Y-19260500D01*
X37199000Y-19260500D01*
X37199000Y-18760500D01*
X37219000Y-18760500D01*
X37219000Y-18617500D01*
X37965000Y-18617500D01*
X37965000Y-18760500D01*
X37965000Y-18760500D01*
G37*
X37965000Y-18760500D02*
X37985000Y-18760500D01*
X37985000Y-19260500D01*
X37965000Y-19260500D01*
X37965000Y-19986750D01*
X38123750Y-20145500D01*
X38508000Y-20145500D01*
X38508000Y-20886551D01*
X38392000Y-20863060D01*
X36792000Y-20863060D01*
X36556683Y-20907338D01*
X36340559Y-21046410D01*
X36279915Y-21135165D01*
X36226750Y-21082000D01*
X35464750Y-21082000D01*
X35464750Y-21209000D01*
X34893250Y-21209000D01*
X34893250Y-21082000D01*
X34786000Y-21082000D01*
X34786000Y-20828000D01*
X34893250Y-20828000D01*
X34893250Y-20701000D01*
X35464750Y-20701000D01*
X35464750Y-20828000D01*
X36226750Y-20828000D01*
X36385500Y-20669250D01*
X36385500Y-20574691D01*
X36288827Y-20341302D01*
X36262291Y-20314765D01*
X36346931Y-20190890D01*
X36385231Y-20001757D01*
X36432301Y-20048827D01*
X36665690Y-20145500D01*
X37060250Y-20145500D01*
X37219000Y-19986750D01*
X37219000Y-19260500D01*
X37199000Y-19260500D01*
X37199000Y-18760500D01*
X37219000Y-18760500D01*
X37219000Y-18617500D01*
X37965000Y-18617500D01*
X37965000Y-18760500D01*
M02*
