G04 #@! TF.FileFunction,Copper,L1,Top,Signal*
%FSLAX46Y46*%
G04 Gerber Fmt 4.6, Leading zero omitted, Abs format (unit mm)*
G04 Created by KiCad (PCBNEW 4.0.0-rc2-1-stable) date Thursday, April 14, 2016 'pmt' 02:26:12 pm*
%MOMM*%
G01*
G04 APERTURE LIST*
%ADD10C,0.100000*%
%ADD11R,1.524000X1.524000*%
%ADD12C,1.524000*%
%ADD13R,1.143000X0.508000*%
%ADD14R,1.600000X1.000000*%
%ADD15C,0.400000*%
G04 APERTURE END LIST*
D10*
D11*
X26797000Y-28448000D03*
D12*
X26797000Y-25908000D03*
X29337000Y-28448000D03*
X29337000Y-25908000D03*
X31877000Y-28448000D03*
X31877000Y-25908000D03*
X34417000Y-28448000D03*
X34417000Y-25908000D03*
X36957000Y-28448000D03*
X36957000Y-25908000D03*
D13*
X28829000Y-22225000D03*
X28829000Y-20955000D03*
X28829000Y-19685000D03*
X28829000Y-18415000D03*
X35179000Y-18415000D03*
X35179000Y-19685000D03*
X35179000Y-20955000D03*
X35179000Y-22225000D03*
D14*
X37846000Y-21947000D03*
X37846000Y-18947000D03*
X25654000Y-21947000D03*
X25654000Y-18947000D03*
D15*
X35179000Y-22225000D02*
X37568000Y-22225000D01*
X37568000Y-22225000D02*
X37846000Y-21947000D01*
X25654000Y-18947000D02*
X25654000Y-17907000D01*
X37846000Y-17780000D02*
X37846000Y-18947000D01*
X36703000Y-16637000D02*
X37846000Y-17780000D01*
X26924000Y-16637000D02*
X36703000Y-16637000D01*
X25654000Y-17907000D02*
X26924000Y-16637000D01*
X35179000Y-20955000D02*
X36449000Y-20955000D01*
X37846000Y-19558000D02*
X37846000Y-18947000D01*
X36449000Y-20955000D02*
X37846000Y-19558000D01*
X37846000Y-18947000D02*
X38378000Y-18947000D01*
X38378000Y-18947000D02*
X39624000Y-20193000D01*
X39624000Y-20193000D02*
X39624000Y-28829000D01*
X39624000Y-28829000D02*
X38227000Y-30226000D01*
X38227000Y-30226000D02*
X31115000Y-30226000D01*
X31115000Y-30226000D02*
X29337000Y-28448000D01*
X28829000Y-22225000D02*
X25932000Y-22225000D01*
X25932000Y-22225000D02*
X25654000Y-21947000D01*
X26797000Y-25908000D02*
X26797000Y-24257000D01*
X26797000Y-24257000D02*
X28130500Y-22923500D01*
X28130500Y-22923500D02*
X28829000Y-22225000D01*
X35179000Y-18415000D02*
X31369000Y-18415000D01*
X24130000Y-25781000D02*
X26797000Y-28448000D01*
X24130000Y-20701000D02*
X24130000Y-25781000D01*
X24511000Y-20320000D02*
X24130000Y-20701000D01*
X26543000Y-20320000D02*
X24511000Y-20320000D01*
X27178000Y-19685000D02*
X26543000Y-20320000D01*
X27178000Y-18161000D02*
X27178000Y-19685000D01*
X27813000Y-17526000D02*
X27178000Y-18161000D01*
X30480000Y-17526000D02*
X27813000Y-17526000D01*
X31369000Y-18415000D02*
X30480000Y-17526000D01*
X26797000Y-28448000D02*
X26797000Y-28194000D01*
X35179000Y-19685000D02*
X33655000Y-19685000D01*
X29337000Y-24003000D02*
X29337000Y-25908000D01*
X33655000Y-19685000D02*
X29337000Y-24003000D01*
M02*
